<svg width="19" height="18" viewBox="0 0 19 18" fill="none" xmlns="http://www.w3.org/2000/svg">
<path d="M7.25008 13.3126C6.94258 13.3126 6.68758 13.0576 6.68758 12.7501V9.60761L6.14758 10.1476C5.93008 10.3651 5.57008 10.3651 5.35258 10.1476C5.13508 9.93011 5.13508 9.57011 5.35258 9.35261L6.85258 7.85261C7.01008 7.69511 7.25758 7.64261 7.46758 7.73261C7.67758 7.81511 7.81258 8.02511 7.81258 8.25011V12.7501C7.81258 13.0576 7.55758 13.3126 7.25008 13.3126Z" fill="#64748B"/>
<path d="M8.75008 10.3126C8.60758 10.3126 8.46508 10.2601 8.35258 10.1476L6.85258 8.64758C6.63508 8.43008 6.63508 8.07008 6.85258 7.85258C7.07008 7.63508 7.43008 7.63508 7.64758 7.85258L9.14758 9.35258C9.36508 9.57008 9.36508 9.93008 9.14758 10.1476C9.03508 10.2601 8.89258 10.3126 8.75008 10.3126Z" fill="#64748B"/>
<path d="M11.75 17.0625H7.25C3.1775 17.0625 1.4375 15.3225 1.4375 11.25V6.75C1.4375 2.6775 3.1775 0.9375 7.25 0.9375H11C11.3075 0.9375 11.5625 1.1925 11.5625 1.5C11.5625 1.8075 11.3075 2.0625 11 2.0625H7.25C3.7925 2.0625 2.5625 3.2925 2.5625 6.75V11.25C2.5625 14.7075 3.7925 15.9375 7.25 15.9375H11.75C15.2075 15.9375 16.4375 14.7075 16.4375 11.25V7.5C16.4375 7.1925 16.6925 6.9375 17 6.9375C17.3075 6.9375 17.5625 7.1925 17.5625 7.5V11.25C17.5625 15.3225 15.8225 17.0625 11.75 17.0625Z" fill="#64748B"/>
<path d="M17 8.06261H14C11.435 8.06261 10.4375 7.06511 10.4375 4.50011V1.50011C10.4375 1.27511 10.5725 1.06511 10.7825 0.982614C10.9925 0.892614 11.2325 0.945114 11.3975 1.10261L17.3975 7.10261C17.555 7.26011 17.6075 7.50761 17.5175 7.71761C17.4275 7.92761 17.225 8.06261 17 8.06261ZM11.5625 2.85761V4.50011C11.5625 6.43511 12.065 6.93761 14 6.93761H15.6425L11.5625 2.85761Z" fill="#64748B"/>
</svg>
