<svg width="20" height="18" viewBox="0 0 20 18" fill="none" xmlns="http://www.w3.org/2000/svg">
<path d="M9.52413 1.20647C9.5629 1.1119 9.62893 1.031 9.71381 0.974062C9.79869 0.917122 9.89859 0.886719 10.0008 0.886719C10.103 0.886719 10.2029 0.917122 10.2878 0.974062C10.3727 1.031 10.4387 1.1119 10.4775 1.20647L12.4254 5.89156C12.4618 5.97922 12.5218 6.05513 12.5986 6.11093C12.6754 6.16672 12.7662 6.20025 12.8608 6.20781L17.919 6.61297C18.3764 6.64964 18.5616 7.22072 18.2132 7.51864L14.3596 10.8205C14.2876 10.8821 14.2339 10.9623 14.2045 11.0523C14.175 11.1424 14.171 11.2388 14.1927 11.3311L15.3706 16.2673C15.3943 16.3663 15.3881 16.4702 15.3528 16.5657C15.3175 16.6612 15.2547 16.7441 15.1723 16.8039C15.0899 16.8638 14.9916 16.8978 14.8899 16.9019C14.7881 16.9059 14.6875 16.8796 14.6006 16.8265L10.2694 14.1819C10.1885 14.1325 10.0956 14.1063 10.0008 14.1063C9.90603 14.1063 9.81309 14.1325 9.73222 14.1819L5.40097 16.8274C5.31412 16.8805 5.21347 16.9068 5.11172 16.9028C5.00997 16.8988 4.9117 16.8647 4.82931 16.8048C4.74691 16.745 4.6841 16.6621 4.6488 16.5666C4.6135 16.4711 4.60729 16.3673 4.63097 16.2682L5.80888 11.3311C5.83073 11.2388 5.82671 11.1424 5.79728 11.0523C5.76785 10.9622 5.71413 10.882 5.64205 10.8205L1.78838 7.51864C1.71078 7.45249 1.65456 7.36479 1.62683 7.26666C1.5991 7.16853 1.60112 7.06438 1.63263 6.9674C1.66414 6.87042 1.72372 6.78497 1.80383 6.72188C1.88394 6.65878 1.98097 6.62088 2.08263 6.61297L7.1408 6.20781C7.23545 6.20025 7.32617 6.16672 7.40299 6.11093C7.47981 6.05513 7.53975 5.97922 7.57622 5.89156L9.52413 1.20647Z" stroke="#EED1AC" stroke-width="1.5" stroke-linecap="round" stroke-linejoin="round"/>
</svg>
