<svg width="20" height="18" viewBox="0 0 20 18" fill="none" xmlns="http://www.w3.org/2000/svg">
<path d="M9.52316 1.20745C9.56193 1.11288 9.62795 1.03198 9.71283 0.975038C9.79772 0.918099 9.89762 0.887695 9.99983 0.887695C10.102 0.887695 10.2019 0.918099 10.2868 0.975038C10.3717 1.03198 10.4377 1.11288 10.4765 1.20745L12.4244 5.89253C12.4609 5.9802 12.5208 6.05611 12.5976 6.1119C12.6745 6.1677 12.7652 6.20122 12.8598 6.20878L17.918 6.61395C18.3754 6.65062 18.5606 7.2217 18.2122 7.51962L14.3586 10.8215C14.2866 10.883 14.2329 10.9633 14.2035 11.0533C14.1741 11.1434 14.17 11.2398 14.1917 11.332L15.3697 16.2683C15.3933 16.3673 15.3871 16.4711 15.3518 16.5667C15.3165 16.6622 15.2537 16.7451 15.1713 16.8049C15.0889 16.8647 14.9907 16.8988 14.8889 16.9028C14.7872 16.9068 14.6865 16.8806 14.5997 16.8275L10.2684 14.1829C10.1875 14.1335 10.0946 14.1073 9.99983 14.1073C9.90505 14.1073 9.81212 14.1335 9.73124 14.1829L5.39999 16.8284C5.31314 16.8815 5.21249 16.9078 5.11074 16.9037C5.009 16.8997 4.91072 16.8657 4.82833 16.8058C4.74594 16.746 4.68312 16.6631 4.64782 16.5676C4.61252 16.4721 4.60632 16.3682 4.62999 16.2692L5.80791 11.332C5.82975 11.2398 5.82574 11.1434 5.7963 11.0533C5.76687 10.9632 5.71316 10.883 5.64107 10.8215L1.78741 7.51962C1.70981 7.45347 1.65358 7.36577 1.62585 7.26764C1.59813 7.16951 1.60015 7.06536 1.63166 6.96838C1.66317 6.8714 1.72275 6.78595 1.80285 6.72286C1.88296 6.65976 1.97999 6.62186 2.08166 6.61395L7.13983 6.20878C7.23447 6.20122 7.32519 6.1677 7.40202 6.1119C7.47884 6.05611 7.53878 5.9802 7.57524 5.89253L9.52316 1.20745Z" stroke="#D6E0FF" stroke-width="1.5" stroke-linecap="round" stroke-linejoin="round"/>
</svg>
