<svg width="163" height="77" viewBox="0 0 163 77" fill="none" xmlns="http://www.w3.org/2000/svg">
<rect width="37" height="37" rx="18.5" transform="matrix(-1 0 0 1 37 20)" fill="#25388C"/>
<path opacity="0.5" d="M18.5 34.9322V47.9482C24.3804 44.7107 29.3357 46.825 30.3929 48.0143V34.9322C26.2304 32.5536 19.5792 32.928 18.5 34.9322Z" fill="#DBE5FF"/>
<path d="M18.5 34.9321V47.9482C22.2661 43.0589 27.0232 44.2482 28.5429 44.5124V31.5625C25.0411 30.4392 19.5792 32.9279 18.5 34.9321Z" fill="#F0F4FF"/>
<path d="M18.5 34.7832V47.75C20.5271 43.0767 25.8891 42.6159 26.9571 42.6817V28.9909C24.4462 28.8329 19.0231 32.3478 18.5 34.7832Z" fill="url(#paint0_linear_98001_27493)"/>
<path opacity="0.5" d="M18.5 34.9322V47.9482C12.6196 44.7107 7.66429 46.825 6.60714 48.0143V34.9322C10.7696 32.5536 17.4208 32.928 18.5 34.9322Z" fill="#DBE5FF"/>
<path d="M18.5 34.9321V47.9482C14.7339 43.0589 9.97679 44.2482 8.45714 44.5124V31.5625C11.9589 30.4392 17.4208 32.9279 18.5 34.9321Z" fill="#F0F4FF"/>
<path d="M18.5 34.7832V47.75C16.4729 43.0767 11.1109 42.6159 10.0429 42.6817V28.9909C12.5538 28.8329 17.9769 32.3478 18.5 34.7832Z" fill="url(#paint1_linear_98001_27493)"/>
<path d="M44.132 30.352H52.53C53.2753 30.352 53.9427 30.4647 54.532 30.69C55.1387 30.9153 55.65 31.2273 56.066 31.626C56.482 32.0247 56.794 32.5187 57.002 33.108C57.2273 33.68 57.34 34.3127 57.34 35.006C57.34 35.6993 57.2447 36.2887 57.054 36.774C56.8807 37.242 56.638 37.632 56.326 37.944C56.0313 38.256 55.6847 38.49 55.286 38.646C54.9047 38.802 54.506 38.8887 54.09 38.906V39.062C54.4887 39.062 54.9133 39.14 55.364 39.296C55.832 39.452 56.2567 39.7033 56.638 40.05C57.0367 40.3793 57.366 40.8127 57.626 41.35C57.886 41.87 58.016 42.52 58.016 43.3C58.016 44.028 57.8947 44.7127 57.652 45.354C57.4267 45.978 57.106 46.524 56.69 46.992C56.274 47.46 55.78 47.8327 55.208 48.11C54.636 48.37 54.012 48.5 53.336 48.5H44.132V30.352ZM47.564 45.588H52.348C53.0067 45.588 53.518 45.4233 53.882 45.094C54.246 44.7473 54.428 44.2533 54.428 43.612V42.728C54.428 42.0867 54.246 41.5927 53.882 41.246C53.518 40.8993 53.0067 40.726 52.348 40.726H47.564V45.588ZM47.564 37.918H51.802C52.426 37.918 52.9113 37.7533 53.258 37.424C53.6047 37.0773 53.778 36.6007 53.778 35.994V35.188C53.778 34.5813 53.6047 34.1133 53.258 33.784C52.9113 33.4373 52.426 33.264 51.802 33.264H47.564V37.918ZM66.5462 48.812C65.5756 48.812 64.7002 48.6473 63.9202 48.318C63.1576 47.9887 62.4989 47.512 61.9442 46.888C61.4069 46.264 60.9909 45.5187 60.6962 44.652C60.4016 43.768 60.2542 42.78 60.2542 41.688C60.2542 40.596 60.4016 39.6167 60.6962 38.75C60.9909 37.8833 61.4069 37.1467 61.9442 36.54C62.4989 35.916 63.1576 35.4393 63.9202 35.11C64.7002 34.7807 65.5756 34.616 66.5462 34.616C67.5169 34.616 68.3922 34.7807 69.1722 35.11C69.9522 35.4393 70.6109 35.916 71.1482 36.54C71.7029 37.1467 72.1276 37.8833 72.4222 38.75C72.7169 39.6167 72.8642 40.596 72.8642 41.688C72.8642 42.78 72.7169 43.768 72.4222 44.652C72.1276 45.5187 71.7029 46.264 71.1482 46.888C70.6109 47.512 69.9522 47.9887 69.1722 48.318C68.3922 48.6473 67.5169 48.812 66.5462 48.812ZM66.5462 46.134C67.4302 46.134 68.1236 45.8653 68.6262 45.328C69.1289 44.7907 69.3802 44.002 69.3802 42.962V40.44C69.3802 39.4173 69.1289 38.6373 68.6262 38.1C68.1236 37.5627 67.4302 37.294 66.5462 37.294C65.6796 37.294 64.9949 37.5627 64.4922 38.1C63.9896 38.6373 63.7382 39.4173 63.7382 40.44V42.962C63.7382 44.002 63.9896 44.7907 64.4922 45.328C64.9949 45.8653 65.6796 46.134 66.5462 46.134ZM81.1966 48.812C80.226 48.812 79.3506 48.6473 78.5706 48.318C77.808 47.9887 77.1493 47.512 76.5946 46.888C76.0573 46.264 75.6413 45.5187 75.3466 44.652C75.052 43.768 74.9046 42.78 74.9046 41.688C74.9046 40.596 75.052 39.6167 75.3466 38.75C75.6413 37.8833 76.0573 37.1467 76.5946 36.54C77.1493 35.916 77.808 35.4393 78.5706 35.11C79.3506 34.7807 80.226 34.616 81.1966 34.616C82.1673 34.616 83.0426 34.7807 83.8226 35.11C84.6026 35.4393 85.2613 35.916 85.7986 36.54C86.3533 37.1467 86.778 37.8833 87.0726 38.75C87.3673 39.6167 87.5146 40.596 87.5146 41.688C87.5146 42.78 87.3673 43.768 87.0726 44.652C86.778 45.5187 86.3533 46.264 85.7986 46.888C85.2613 47.512 84.6026 47.9887 83.8226 48.318C83.0426 48.6473 82.1673 48.812 81.1966 48.812ZM81.1966 46.134C82.0806 46.134 82.774 45.8653 83.2766 45.328C83.7793 44.7907 84.0306 44.002 84.0306 42.962V40.44C84.0306 39.4173 83.7793 38.6373 83.2766 38.1C82.774 37.5627 82.0806 37.294 81.1966 37.294C80.33 37.294 79.6453 37.5627 79.1426 38.1C78.64 38.6373 78.3886 39.4173 78.3886 40.44V42.962C78.3886 44.002 78.64 44.7907 79.1426 45.328C79.6453 45.8653 80.33 46.134 81.1966 46.134ZM90.465 29.26H93.793V40.856H93.923L95.717 38.412L98.759 34.928H102.529L97.849 40.18L103.023 48.5H99.071L95.587 42.416L93.793 44.366V48.5H90.465V29.26ZM107.826 48.5L103.614 30.352H107.046L108.84 39.062L109.958 44.626H110.036L111.336 39.062L113.416 30.352H117.212L119.292 39.062L120.566 44.626H120.644L121.788 39.062L123.634 30.352H126.91L122.568 48.5H118.694L116.38 38.906L115.262 34.122H115.21L114.04 38.906L111.726 48.5H107.826ZM131.205 32.952C130.512 32.952 130.009 32.796 129.697 32.484C129.403 32.172 129.255 31.7733 129.255 31.288V30.768C129.255 30.2827 129.403 29.884 129.697 29.572C130.009 29.26 130.512 29.104 131.205 29.104C131.881 29.104 132.375 29.26 132.687 29.572C132.999 29.884 133.155 30.2827 133.155 30.768V31.288C133.155 31.7733 132.999 32.172 132.687 32.484C132.375 32.796 131.881 32.952 131.205 32.952ZM129.541 34.928H132.869V48.5H129.541V34.928ZM141.173 48.812C139.873 48.812 138.781 48.5953 137.897 48.162C137.013 47.7113 136.233 47.096 135.557 46.316L137.585 44.34C138.087 44.912 138.633 45.3627 139.223 45.692C139.829 46.0213 140.523 46.186 141.303 46.186C142.1 46.186 142.672 46.0473 143.019 45.77C143.383 45.4927 143.565 45.1113 143.565 44.626C143.565 44.2273 143.435 43.9153 143.175 43.69C142.932 43.4473 142.507 43.2827 141.901 43.196L140.549 43.014C139.075 42.8233 137.949 42.4073 137.169 41.766C136.406 41.1073 136.025 40.154 136.025 38.906C136.025 38.2473 136.146 37.658 136.389 37.138C136.631 36.6007 136.978 36.15 137.429 35.786C137.879 35.4047 138.417 35.1187 139.041 34.928C139.682 34.72 140.393 34.616 141.173 34.616C141.831 34.616 142.412 34.668 142.915 34.772C143.435 34.8587 143.903 34.9973 144.319 35.188C144.735 35.3613 145.116 35.5867 145.463 35.864C145.809 36.124 146.147 36.4187 146.477 36.748L144.527 38.698C144.128 38.282 143.651 37.9353 143.097 37.658C142.542 37.3807 141.935 37.242 141.277 37.242C140.549 37.242 140.02 37.372 139.691 37.632C139.379 37.892 139.223 38.23 139.223 38.646C139.223 39.0967 139.353 39.4433 139.613 39.686C139.89 39.9113 140.349 40.076 140.991 40.18L142.369 40.362C145.298 40.778 146.763 42.1127 146.763 44.366C146.763 45.0247 146.624 45.6313 146.347 46.186C146.087 46.7233 145.714 47.1913 145.229 47.59C144.743 47.9713 144.154 48.2747 143.461 48.5C142.785 48.708 142.022 48.812 141.173 48.812ZM155.187 48.812C154.182 48.812 153.281 48.6473 152.483 48.318C151.703 47.9713 151.036 47.4947 150.481 46.888C149.944 46.264 149.528 45.5187 149.233 44.652C148.939 43.768 148.791 42.78 148.791 41.688C148.791 40.6133 148.93 39.6427 149.207 38.776C149.502 37.9093 149.918 37.1727 150.455 36.566C150.993 35.942 151.651 35.4653 152.431 35.136C153.211 34.7893 154.095 34.616 155.083 34.616C156.141 34.616 157.059 34.798 157.839 35.162C158.619 35.526 159.261 36.02 159.763 36.644C160.266 37.268 160.639 37.996 160.881 38.828C161.141 39.6427 161.271 40.518 161.271 41.454V42.546H152.249V42.884C152.249 43.872 152.527 44.6693 153.081 45.276C153.636 45.8653 154.459 46.16 155.551 46.16C156.383 46.16 157.059 45.9867 157.579 45.64C158.117 45.2933 158.593 44.8513 159.009 44.314L160.803 46.316C160.249 47.096 159.486 47.7113 158.515 48.162C157.562 48.5953 156.453 48.812 155.187 48.812ZM155.135 37.112C154.251 37.112 153.549 37.4067 153.029 37.996C152.509 38.5853 152.249 39.348 152.249 40.284V40.492H157.813V40.258C157.813 39.322 157.579 38.568 157.111 37.996C156.661 37.4067 156.002 37.112 155.135 37.112Z" fill="#25388C"/>
<defs>
<linearGradient id="paint0_linear_98001_27493" x1="18.5" y1="40.1518" x2="26.9571" y2="40.1518" gradientUnits="userSpaceOnUse">
<stop stop-color="#FAFBFF" stop-opacity="0.49" offset=""/>
<stop offset="1" stop-color="#FAFBFF"/>
</linearGradient>
<linearGradient id="paint1_linear_98001_27493" x1="18.5" y1="40.1518" x2="10.0429" y2="40.1518" gradientUnits="userSpaceOnUse">
<stop stop-color="#FAFBFF" stop-opacity="0.49" offset=""/>
<stop offset="1" stop-color="#FAFBFF"/>
</linearGradient>
</defs>
</svg>
